<svg id="Layer_1" data-name="Layer 1" xmlns="http://www.w3.org/2000/svg" viewBox="0 0 80 40"><defs><style>.cls-1{fill:#f2f2f2;}</style></defs><title>cps-_ibmLogo</title><path class="cls-1" d="M18.8,9.6H7.2V7.9H18.8Zm0,3.2H7.2V11.1H18.8ZM7.2,27v1.7H18.8V27Zm11.6,3.2v1.7H7.2V30.2ZM15.4,16h-5V14.3h5Zm0,3.2h-5V17.5h5Zm0,3.2V20.7h-5v1.7Zm0,3.2h-5V23.9h5ZM33,7.9a6.9,6.9,0,0,1,3.9,1.7H20.3V7.9Zm5.2,3.2a8.2,8.2,0,0,1,.5,1.7H20.3V11.1ZM38.8,27l-.2.9a5.6,5.6,0,0,1-.5.8H20.3V27ZM20.3,30.2H37a5.7,5.7,0,0,1-4.3,1.7H20.3ZM28.6,16h-5V14.3h5Zm-5,1.5H37.9a8,8,0,0,1-1.5,1.7H23.6Zm0,3.2H36.4A6.6,6.6,0,0,1,38,22.4H23.6Zm0,4.9V23.9h5v1.7ZM38.8,14.3a4.2,4.2,0,0,1-.2,1.7H33.5V14.3Zm-.1,9.6a8.9,8.9,0,0,1,.3,1.7H33.6V23.9Zm1.6-16h8.9l.6,1.7H40.3Zm10.6,4.9H40.3V11.1h10ZM48.4,28.7H40.3V27h8.1Zm0,3.2H40.3V30.2h8.1Zm3-17.6.7,1.7H43.5V14.3Zm-3,3.6v1.3H43.5V17.5h9.1l.6,1.7H48.9Zm0,2.8H43.5v1.7h4.9V20.7Zm0,4.9H43.5V23.9h4.9Zm9.1-4.9-.6,1.7H50l-.6-1.7Zm-1.7,4.9c.4-1.1.6-1.6.6-1.7H50.5l.6,1.7Zm-1.1,3.1H52.2L51.6,27h3.7Zm-1.1,3.2h-.3l-.6-1.7h1.5Zm.6-14.4h9.2v1.7H58.5V17.9L58,19.2H53.7Zm1.1-3.2L54.7,16h8.7V14.3Zm11.3-1.5H55.9a8.4,8.4,0,0,1,.6-1.7H66.6Zm0-3.2H57l.6-1.7h9ZM63.4,22.4H58.5V20.7h4.9Zm0,3.2H58.5V23.9h4.9Zm3.2,3.1H58.5V27h8.1Zm0,3.2H58.5V30.2h8.1Zm1.8-1.7a1.6,1.6,0,0,1,.5-1.1,1.5,1.5,0,0,1,1.2-.5,1.3,1.3,0,0,1,1.2.5,1.6,1.6,0,0,1,.5,1.1,1.7,1.7,0,0,1-1.7,1.7,1.8,1.8,0,0,1-1.2-.5A1.7,1.7,0,0,1,68.4,30.2Zm3.1,0a1.4,1.4,0,1,0-2.8,0,1.2,1.2,0,0,0,.4,1,1.3,1.3,0,0,0,2,0A1.2,1.2,0,0,0,71.5,30.2Zm-.6,1h-.3l-.5-.9h-.4v.9h-.2V29.3h.8c.4,0,.6.2.6.5a.5.5,0,0,1-.5.5ZM70,30.1c.5,0,.7-.1.7-.3s-.2-.3-.5-.3h-.5v.6Z"/></svg>