<svg id="gom" enable-background="new 0 0 24 24"  viewBox="0 0 85 24" xmlns="http://www.w3.org/2000/svg">
<g>
<path d="m17.5 24c-3.584 0-6.5-2.916-6.5-6.5s2.916-6.5 6.5-6.5 6.5 2.916 6.5 6.5-2.916 6.5-6.5 6.5zm0-12c-3.032 0-5.5 2.467-5.5 5.5s2.468 5.5 5.5 5.5 5.5-2.467 5.5-5.5-2.468-5.5-5.5-5.5z"/>
</g>
<g>
<path d="m15.5 23.65c-.276 0-.5-.224-.5-.5v-11.3c0-.276.224-.5.5-.5s.5.224.5.5v11.3c0 .276-.224.5-.5.5z"/>
</g><g><path d="m19.5 23.65c-.276 0-.5-.224-.5-.5v-11.3c0-.276.224-.5.5-.5s.5.224.5.5v11.3c0 .276-.224.5-.5.5z"/>
</g><g><path d="m23.15 16h-11.3c-.276 0-.5-.224-.5-.5s.224-.5.5-.5h11.3c.276 0 .5.224.5.5s-.223.5-.5.5z"/>
</g><g><path d="m23.15 20h-11.3c-.276 0-.5-.224-.5-.5s.224-.5.5-.5h11.3c.276 0 .5.224.5.5s-.223.5-.5.5z"/>
</g><g><path d="m9.5 15h-6c-.276 0-.5-.224-.5-.5s.224-.5.5-.5h6c.276 0 .5.224.5.5s-.224.5-.5.5z"/>
</g><g><path d="m8.5 18h-5c-.276 0-.5-.224-.5-.5s.224-.5.5-.5h5c.276 0 .5.224.5.5s-.224.5-.5.5z"/>
</g><g><path d="m8.5 7c-1.103 0-2-.897-2-2s.897-2 2-2 2 .897 2 2-.897 2-2 2zm0-3c-.552 0-1 .449-1 1s.448 1 1 1 1-.449 1-1-.448-1-1-1z"/>
</g><g><path d="m12 12c-.276 0-.5-.224-.5-.5v-1c0-.827-.673-1.5-1.5-1.5h-3c-.827 0-1.5.673-1.5 1.5v1c0 .276-.224.5-.5.5s-.5-.224-.5-.5v-1c0-1.378 1.121-2.5 2.5-2.5h3c1.379 0 2.5 1.122 2.5 2.5v1c0 .276-.224.5-.5.5z"/>
</g><g><path d="m9.5 21h-7c-1.379 0-2.5-1.122-2.5-2.5v-16c0-1.378 1.121-2.5 2.5-2.5h12c1.379 0 2.5 1.122 2.5 2.5v6.06c0 .276-.224.5-.5.5s-.5-.224-.5-.5v-6.06c0-.827-.673-1.5-1.5-1.5h-12c-.827 0-1.5.673-1.5 1.5v16c0 .827.673 1.5 1.5 1.5h7c.276 0 .5.224.5.5s-.224.5-.5.5z"/>
</g></svg>