<?xml version="1.0" encoding="UTF-8"?>
<svg id="tram" xmlns="http://www.w3.org/2000/svg" viewBox="0 30 220 5" ><g id="budget"><path d="M46,44h2V42a2,2,0,0,0,2-2V38a2,2,0,0,0-2-2H46V34h4V32H48V30H46v2a2,2,0,0,0-2,2v2a2,2,0,0,0,2,2h2v2H44v2h2Z"/><path d="M10,25H30a1,1,0,0,0,1-1V21a1,1,0,0,0-1-1H29V18a1,1,0,0,0-1-1H27V15h1a1,1,0,0,0,1-1V12h1a1,1,0,0,0,.625-1.781l-10-8a1,1,0,0,0-1.25,0l-10,8A1,1,0,0,0,10,12h1v2a1,1,0,0,0,1,1h1v2H12a1,1,0,0,0-1,1v2H10a1,1,0,0,0-1,1v3A1,1,0,0,0,10,25Zm15-5V19h2v1Zm2-7H25V12h2ZM20,4.281,27.149,10h-14.3ZM15,12v1H13V12Zm0,3h1a1,1,0,0,0,1-1V12h6v2a1,1,0,0,0,1,1h1v2H24a1,1,0,0,0-1,1v2H17V18a1,1,0,0,0-1-1H15Zm-2,4h2v1H13Zm-2,3H29v1H11Z"/><path d="M36.442,47.614A14.906,14.906,0,1,0,32.178,39.3l-9.707-5.177a1,1,0,0,0-.877-.032L14,37.461V37a1,1,0,0,0-1-1H9a1,1,0,0,0-1,1v.612L3.316,36.051A1,1,0,0,0,2,37V55a1,1,0,0,0,1,1,1.01,1.01,0,0,0,.316-.051L8,54.388V55a1,1,0,0,0,1,1h4a.993.993,0,0,0,.986-.93l8.389,6.711A1,1,0,0,0,23,62H52a4,4,0,0,0,0-8H32.351l-7.5-6H35A2.966,2.966,0,0,0,36.442,47.614ZM36.051,36h-2a12.872,12.872,0,0,1,1.238-4.607l1.735,1A10.9,10.9,0,0,0,36.051,36ZM48,26.051v-2a12.861,12.861,0,0,1,4.606,1.238l-1,1.735A10.9,10.9,0,0,0,48,26.051Zm-2,0a10.9,10.9,0,0,0-3.6.973l-1-1.735A12.861,12.861,0,0,1,46,24.051ZM47,28a9,9,0,1,1-9,9A9.01,9.01,0,0,1,47,28ZM57.949,38h2a12.872,12.872,0,0,1-1.238,4.607l-1.735-1A10.9,10.9,0,0,0,57.949,38Zm0-2a10.9,10.9,0,0,0-.973-3.6l1.735-1A12.872,12.872,0,0,1,59.949,36ZM46,47.949v2a12.934,12.934,0,0,1-4.607-1.234l1-1.736A10.9,10.9,0,0,0,46,47.949Zm2,0a10.9,10.9,0,0,0,3.6-.973l1,1.735A12.861,12.861,0,0,1,48,49.949ZM37.777,46.124A2.984,2.984,0,0,0,38,45v-1.7a11.092,11.092,0,0,0,2.663,2.671l-1,1.732A12.966,12.966,0,0,1,37.777,46.124Zm16.566,1.593-1.006-1.741a11.1,11.1,0,0,0,2.639-2.639l1.741,1.006A13.1,13.1,0,0,1,54.343,47.717Zm3.374-18.06-1.741,1.006a11.1,11.1,0,0,0-2.639-2.639l1.006-1.741A13.1,13.1,0,0,1,57.717,29.657Zm-18.06-3.374,1.006,1.741a11.1,11.1,0,0,0-2.639,2.639l-1.741-1.006A13.1,13.1,0,0,1,39.657,26.283ZM34.039,38h2.012A10.88,10.88,0,0,0,37.2,41.974l-2.7-1.44A12.984,12.984,0,0,1,34.039,38ZM4,53.613V38.387l4,1.334V52.279ZM12,54H10V38h2Zm9.375-6.219,10,8A1,1,0,0,0,32,56H52a2,2,0,0,1,0,4H23.351L14,52.519V39.65l7.96-3.538L36,43.6V45a1,1,0,0,1-1,1H22a1,1,0,0,0-.625,1.781Z"/><rect x="46" y="18" width="2" height="2"/><path d="M46,16h2V8a1,1,0,0,0-1-1H32V9H46Z"/></g></svg>
