<?xml version="1.0"?>
<svg id="tram" xmlns="http://www.w3.org/2000/svg" viewBox="0 20 220 25" ><g id="Budgeting"><path d="M33,62H7a5.006,5.006,0,0,1-5-5V7A5.006,5.006,0,0,1,7,2H33a5.006,5.006,0,0,1,5,5V57A5.006,5.006,0,0,1,33,62ZM7,4A3,3,0,0,0,4,7V57a3,3,0,0,0,3,3H33a3,3,0,0,0,3-3V7a3,3,0,0,0-3-3Z"/><path d="M33,16H7a1,1,0,0,1-1-1V7A1,1,0,0,1,7,6H33a1,1,0,0,1,1,1v8A1,1,0,0,1,33,16ZM8,14H32V8H8Z"/><path d="M13,28H7a1,1,0,0,1-1-1V21a1,1,0,0,1,1-1h6a1,1,0,0,1,1,1v6A1,1,0,0,1,13,28ZM8,26h4V22H8Z"/><path d="M23,28H17a1,1,0,0,1-1-1V21a1,1,0,0,1,1-1h6a1,1,0,0,1,1,1v6A1,1,0,0,1,23,28Zm-5-2h4V22H18Z"/><path d="M33,28H27a1,1,0,0,1-1-1V21a1,1,0,0,1,1-1h6a1,1,0,0,1,1,1v6A1,1,0,0,1,33,28Zm-5-2h4V22H28Z"/><path d="M13,38H7a1,1,0,0,1-1-1V31a1,1,0,0,1,1-1h6a1,1,0,0,1,1,1v6A1,1,0,0,1,13,38ZM8,36h4V32H8Z"/><path d="M23,38H17a1,1,0,0,1-1-1V31a1,1,0,0,1,1-1h6a1,1,0,0,1,1,1v6A1,1,0,0,1,23,38Zm-5-2h4V32H18Z"/><path d="M33,38H27a1,1,0,0,1-1-1V31a1,1,0,0,1,1-1h6a1,1,0,0,1,1,1v6A1,1,0,0,1,33,38Zm-5-2h4V32H28Z"/><path d="M13,48H7a1,1,0,0,1-1-1V41a1,1,0,0,1,1-1h6a1,1,0,0,1,1,1v6A1,1,0,0,1,13,48ZM8,46h4V42H8Z"/><path d="M23,48H17a1,1,0,0,1-1-1V41a1,1,0,0,1,1-1h6a1,1,0,0,1,1,1v6A1,1,0,0,1,23,48Zm-5-2h4V42H18Z"/><path d="M33,58H27a1,1,0,0,1-1-1V41a1,1,0,0,1,1-1h6a1,1,0,0,1,1,1V57A1,1,0,0,1,33,58Zm-5-2h4V42H28Z"/><path d="M13,58H7a1,1,0,0,1-1-1V51a1,1,0,0,1,1-1h6a1,1,0,0,1,1,1v6A1,1,0,0,1,13,58ZM8,56h4V52H8Z"/><path d="M23,58H17a1,1,0,0,1-1-1V51a1,1,0,0,1,1-1h6a1,1,0,0,1,1,1v6A1,1,0,0,1,23,58Zm-5-2h4V52H18Z"/><path d="M52,9a1,1,0,0,1,1,1,1,1,0,0,0,2,0,3,3,0,0,0-2-2.816V6a1,1,0,0,0-2,0V7.184A2.993,2.993,0,0,0,52,13a1,1,0,1,1-1,1,1,1,0,0,0-2,0,3,3,0,0,0,2,2.816V18a1,1,0,0,0,2,0V16.816A2.993,2.993,0,0,0,52,11a1,1,0,0,1,0-2Z"/><path d="M62,23a3,3,0,0,0-3-3H57.974a10,10,0,1,0-11.948,0H45a2.99,2.99,0,0,0-2.78,4.116,2.983,2.983,0,0,0,0,5.768A2.95,2.95,0,0,0,42.78,33a2.95,2.95,0,0,0-.56,3.116A2.973,2.973,0,0,0,40.78,41a2.973,2.973,0,0,0,1.44,4.884,2.941,2.941,0,0,0,0,2.232,2.983,2.983,0,0,0,0,5.768,2.941,2.941,0,0,0,0,2.232A2.993,2.993,0,0,0,43,62H57a2.99,2.99,0,0,0,2.78-4.116,2.983,2.983,0,0,0,0-5.768,2.941,2.941,0,0,0,0-2.232,2.983,2.983,0,0,0,0-5.768A2.95,2.95,0,0,0,59.22,41a2.95,2.95,0,0,0,.56-3.116A2.973,2.973,0,0,0,61.22,33a2.973,2.973,0,0,0-1.44-4.884,2.941,2.941,0,0,0,0-2.232A3,3,0,0,0,62,23ZM44,12a8,8,0,1,1,8,8A8.009,8.009,0,0,1,44,12ZM43,26H57a1,1,0,0,1,0,2H43a1,1,0,0,1,0-2Zm0,12H57a1,1,0,0,1,0,2H43a1,1,0,0,1,0-2Zm0,4H57a1,1,0,0,1,0,2H43a1,1,0,0,1,0-2Zm0,8H57a1,1,0,0,1,0,2H43a1,1,0,0,1,0-2ZM57,60H43a1,1,0,0,1,0-2H57a1,1,0,0,1,0,2Zm2-4H45a1,1,0,0,1,0-2H59a1,1,0,0,1,0,2Zm0-8H45a1,1,0,0,1,0-2H59a1,1,0,0,1,0,2Zm0-12H45a1,1,0,0,1,0-2H59a1,1,0,0,1,0,2Zm0-4H45a1,1,0,0,1,0-2H59a1,1,0,0,1,0,2Zm0-8H45a1,1,0,0,1,0-2H59a1,1,0,0,1,0,2Z"/></g></svg>
