<?xml version="1.0" encoding="utf-8"?><svg xml:space="preserve" viewBox="0 0 100 100" y="0" x="0" xmlns="http://www.w3.org/2000/svg" id="Layer_1" version="1.1" width="47px" height="47px" xmlns:xlink="http://www.w3.org/1999/xlink" style="width:100%;height:100%;background-size:initial;background-repeat-y:initial;background-repeat-x:initial;background-position-y:initial;background-position-x:initial;background-origin:initial;background-image:initial;background-color:rgba(255, 255, 255, 0.937);background-clip:initial;background-attachment:initial;animation-play-state:paused" ><g class="ldl-scale" style="transform-origin:50% 50%;transform:rotate(0deg) scale(0.8, 0.8);animation-play-state:paused" ><circle fill="#333" r="40" cy="50" cx="50" style="fill:rgb(51, 51, 51);animation-play-state:paused" ></circle>
<path fill="#fff" d="M68.47 41.713l-3.875-.109V27.946h-.08A2.547 2.547 0 0 0 62.044 26h-.087a2.547 2.547 0 0 0-2.471 1.946h-.08c0 3.582-4.85 6.486-8.432 6.486H34.595a5.676 5.676 0 0 0-5.676 5.676v9.405a5.676 5.676 0 0 0 5.676 5.676h.811v16.216a2.594 2.594 0 1 0 5.189 0V55.189h10.378c3.582 0 8.432 2.904 8.432 6.486h.08a2.547 2.547 0 0 0 2.471 1.946h.087a2.547 2.547 0 0 0 2.471-1.946h.08V48.018l3.875-.109c1.452-.041 2.611-1.416 2.611-3.098s-1.158-3.058-2.61-3.098z" style="fill:rgb(255, 255, 255);animation-play-state:paused" ></path>
<metadata xmlns:d="https://loading.io/stock/" style="animation-play-state:paused" ><d:name style="animation-play-state:paused" >advocate</d:name>


<d:tags style="animation-play-state:paused" >advocate,marketing,propose,promote,lecture,speak,talk,missionary</d:tags>


<d:license style="animation-play-state:paused" >by</d:license>


<d:slug style="animation-play-state:paused" >q41gum</d:slug></metadata></g><!-- generated by https://loading.io/ --></svg>